<?xml version="1.0" encoding="iso-8859-1"?>
<!-- Generator: Adobe Illustrator 19.0.0, SVG Export Plug-In . SVG Version: 6.00 Build 0)  -->
<svg version="1.1" id="Capa_1" xmlns="http://www.w3.org/2000/svg" xmlns:xlink="http://www.w3.org/1999/xlink" x="0px" y="0px"
	 viewBox="0 0 469.994 469.994" style="enable-background:new 0 0 469.994 469.994;" xml:space="preserve">
<g>
	<path style="fill:#E7453F;" d="M404.025,15c-5.285,0-10.714,0.735-16.136,2.186L118.118,89.36
		c-12.086,3.233-25.524,16.671-28.758,28.758L17.186,387.889c-4.73,17.68-1.808,34.618,8.228,47.693
		c9.469,12.336,24.252,19.412,40.558,19.413c0,0,0.002,0,0.002,0c5.284,0,10.713-0.736,16.136-2.187l269.767-72.173
		c12.086-3.233,25.524-16.672,28.758-28.758L452.808,82.11c4.731-17.683,1.808-34.624-8.23-47.701
		C435.109,22.075,420.328,15,404.025,15z M46.167,395.643c-0.897,3.352-3.928,5.563-7.24,5.563c-0.642,0-1.294-0.083-1.943-0.257
		c-4.001-1.07-6.377-5.182-5.307-9.184l32.211-120.395c1.071-4.002,5.186-6.377,9.184-5.307c4.001,1.07,6.377,5.182,5.307,9.184
		L46.167,395.643z M348,366.145L78.233,438.318c-0.649,0.174-1.302,0.257-1.943,0.257c-3.313,0-6.343-2.211-7.24-5.563
		c-1.071-4.001,1.305-8.113,5.307-9.184l269.767-72.173c4-1.073,8.112,1.305,9.184,5.307
		C354.378,360.962,352.002,365.074,348,366.145z M105.664,319.851l61.438-5.409l5.41-61.439c0.319-3.623,3.191-6.494,6.813-6.813
		l61.441-5.411l5.411-61.44c0.319-3.623,3.19-6.494,6.813-6.813l61.445-5.415l5.415-61.446c0.364-4.126,4.013-7.173,8.129-6.813
		c4.126,0.364,7.176,4.003,6.813,8.129l-5.967,67.707c-0.319,3.622-3.191,6.494-6.813,6.813l-61.445,5.415l-5.411,61.44
		c-0.319,3.623-3.191,6.494-6.813,6.813l-61.441,5.411l-5.41,61.439c-0.319,3.623-3.191,6.495-6.813,6.813l-67.701,5.96
		c-0.224,0.02-0.446,0.029-0.667,0.029c-3.845,0-7.119-2.94-7.462-6.843C98.487,323.854,101.538,320.214,105.664,319.851z
		 M438.317,78.234c-1.071,4.002-5.184,6.379-9.184,5.307c-4.001-1.07-6.377-5.182-5.307-9.184c2.266-8.469,1.184-16.168-3.046-21.68
		c-3.8-4.951-9.751-7.677-16.755-7.677c-2.668,0-5.488,0.393-8.383,1.167l-269.771,72.174c-2.039,0.676-6.854,5.491-7.54,7.566
		l-32.2,120.359c-0.897,3.352-3.928,5.563-7.24,5.563c-0.642,0-1.294-0.083-1.943-0.257c-4.001-1.07-6.377-5.182-5.307-9.184
		l32.21-120.395c1.896-7.09,11.053-16.247,18.143-18.144l269.771-72.174c4.158-1.113,8.283-1.677,12.26-1.677
		c11.773,0,21.95,4.81,28.654,13.543C439.813,52.837,441.816,65.158,438.317,78.234z"/>
	<path style="fill:#3D2A20;" d="M456.476,25.276C444.145,9.213,425.027,0,404.025,0c-6.594,0-13.327,0.907-20.013,2.696
		L114.241,74.87C96.824,79.529,79.53,96.823,74.87,114.241L2.696,384.012c-5.876,21.964-1.933,44.09,10.82,60.703
		c12.331,16.064,31.45,25.278,52.456,25.279c0.001,0,0.002,0,0.003,0c6.592,0,13.326-0.907,20.013-2.696l269.767-72.173
		c17.417-4.66,34.711-21.954,39.371-39.372l72.173-269.766C473.175,64.02,469.231,41.892,456.476,25.276z M452.808,82.11
		l-72.173,269.766c-3.233,12.086-16.672,25.525-28.758,28.758L82.111,452.808c-5.423,1.451-10.852,2.187-16.136,2.187
		c0,0-0.002,0-0.002,0c-16.306-0.001-31.089-7.077-40.558-19.413c-10.036-13.075-12.958-30.013-8.228-47.693l72.174-269.771
		c3.233-12.086,16.672-25.524,28.758-28.758l269.771-72.174C393.311,15.735,398.74,15,404.025,15
		c16.303,0,31.083,7.075,40.552,19.41C454.616,47.487,457.539,64.427,452.808,82.11z"/>
	<path style="fill:#EC6A65;" d="M404.025,30c-3.977,0-8.102,0.564-12.26,1.677l-269.771,72.174
		c-7.09,1.896-16.247,11.054-18.143,18.144l-32.21,120.395c-1.071,4.001,1.305,8.113,5.307,9.184
		c0.649,0.174,1.301,0.257,1.943,0.257c3.313,0,6.343-2.211,7.24-5.563l32.2-120.359c0.686-2.075,5.5-6.89,7.54-7.566
		l269.771-72.174c2.895-0.774,5.715-1.167,8.383-1.167c7.004,0,12.955,2.727,16.755,7.677c4.23,5.511,5.313,13.21,3.046,21.68
		c-1.071,4.001,1.305,8.113,5.307,9.184c4,1.072,8.113-1.305,9.184-5.307c3.499-13.076,1.496-25.396-5.638-34.69
		C425.975,34.81,415.798,30,404.025,30z"/>
	<path style="fill:#EC6A65;" d="M73.071,266.064c-3.998-1.071-8.112,1.305-9.184,5.307L31.676,391.766
		c-1.071,4.001,1.305,8.113,5.307,9.184c0.649,0.174,1.301,0.257,1.943,0.257c3.313,0,6.343-2.211,7.24-5.563l32.211-120.395
		C79.448,271.246,77.072,267.134,73.071,266.064z"/>
	<path style="fill:#EC6A65;" d="M344.123,351.654L74.356,423.828c-4.001,1.07-6.377,5.182-5.307,9.184
		c0.897,3.352,3.928,5.563,7.24,5.563c0.642,0,1.294-0.083,1.943-0.257L348,366.145c4.001-1.07,6.377-5.182,5.307-9.184
		C352.236,352.959,348.124,350.581,344.123,351.654z"/>
	<path style="fill:#3D2A20;" d="M106.313,334.822c0.221,0,0.443-0.01,0.667-0.029l67.701-5.96c3.623-0.319,6.494-3.191,6.813-6.813
		l5.41-61.439l61.441-5.411c3.622-0.319,6.494-3.191,6.813-6.813l5.411-61.44l61.445-5.415c3.622-0.319,6.494-3.191,6.813-6.813
		l5.967-67.707c0.363-4.126-2.687-7.766-6.813-8.129c-4.117-0.36-7.765,2.687-8.129,6.813l-5.415,61.446l-61.445,5.415
		c-3.623,0.319-6.494,3.191-6.813,6.813l-5.411,61.44l-61.441,5.411c-3.622,0.319-6.494,3.191-6.813,6.813l-5.41,61.439
		l-61.438,5.409c-4.126,0.363-7.177,4.003-6.813,8.129C99.194,331.882,102.468,334.822,106.313,334.822z"/>
</g>
<g>
</g>
<g>
</g>
<g>
</g>
<g>
</g>
<g>
</g>
<g>
</g>
<g>
</g>
<g>
</g>
<g>
</g>
<g>
</g>
<g>
</g>
<g>
</g>
<g>
</g>
<g>
</g>
<g>
</g>
</svg>
